PathFileType	4	(X/Y/Z)	pose_F01_0-96.trc
DataRate	CameraRate	NumFrames	NumMarkers	Units	OrigDataRate	OrigDataStartFrame	OrigNumFrames
30	30	6	21	m	30	12	96
Frame#	Time	CHip			RHip			RKnee			RAnkle			RBigToe			RSmallToe			RHeel			LHip			LKnee			LAnkle			LBigToe			LSmallToe			LHeel			Neck			Nose			RShoulder			RElbow			RWrist			LShoulder			LElbow			LWrist			
		X1	Y1	Z1	X2	Y2	Z2	X3	Y3	Z3	X4	Y4	Z4	X5	Y5	Z5	X6	Y6	Z6	X7	Y7	Z7	X8	Y8	Z8	X9	Y9	Z9	X10	Y10	Z10	X11	Y11	Z11	X12	Y12	Z12	X13	Y13	Z13	X14	Y14	Z14	X15	Y15	Z15	X16	Y16	Z16	X17	Y17	Z17	X18	Y18	Z18	X19	Y19	Z19	X20	Y20	Z20	X21	Y21	Z21	
12	0.4	-0.18575574257171365	1.8709697519656532	-0.566305916463788	-0.20318060514017527	1.8691654480650999	-0.5037528349302439	-0.18851063557161252	1.7202126934406248	-0.4878436918933474	-0.1789022000098711	1.5700110360526807	-0.47304229859534225							-0.17193079762585636	1.5553423739279422	-0.4742900814088547	-0.17218236804811565	1.8734515416406412	-0.6276635075144755	-0.16351689999524868	1.7190679856024087	-0.6024951309894483	-0.16073571496196218	1.5733561773873281	-0.5667629704694895	-0.19926766473108498	1.5325912025448816	-0.5910762695306035	-0.1854761384081949	1.5394016083411717	-0.6049522732704825	-0.15647727428654046	1.5579350936550818	-0.5607506870374142	-0.17313449280980073	2.0411694607969113	-0.5712095231714062	-0.20816845254834257	2.109758019220281	-0.5949671811413442	-0.19188701259403673	2.0381087319235607	-0.48786822729995366	-0.19384810834769647	1.9473152908589073	-0.4552034922727545	-0.20741221007884886	1.8591990037175026	-0.4319430787939391	-0.15025189942698775	2.0450631393949634	-0.6572204125893507	-1.4802847699851633	1.87105404501212	0.7320008452761323	-0.13095832953297243	1.8827659275731903	-0.7053891075994221
13	0.43333333333333335	-0.18558230601461712	1.8720790157946638	-0.5665635930634244	-0.20404032760214064	1.8689693509450411	-0.506839755478582	-0.1854431053562754	1.7216149204570075	-0.48710192283372356	-0.17896126921580438	1.5705665424549649	-0.4730731613873905							-0.17169516855128175	1.5568743387919972	-0.47485296114228015	-0.1729098420781645	1.8746151239093916	-0.6311387287019794	-0.16356339491859265	1.7217742645807799	-0.6027190252676721	-0.1599583839106246	1.5747073857577043	-0.5633189717795883	-0.19918125067560197	1.5352745248671478	-0.5914393496460651	-0.18306790718994087	1.5408636746413216	-0.6077767962877586	-0.15557359695236134	1.5582393532132592	-0.5576594590441973	-0.17313189942057913	2.0412047594415115	-0.5712443325940808	-0.20817691186667026	2.109726979697255	-0.5949940539591168	-0.19184772559673974	2.038074119436541	-0.487859126614473	-0.1938689754859529	1.9468348939647975	-0.45514017867275686	-0.2076016392158952	1.860275623180189	-0.43165400878735194	-0.15103659731815236	2.0454739254928573	-0.6601214502927547	-1.4802847699851633	1.87105404501212	0.7320008452761323	-0.13095832953297243	1.8827659275731903	-0.7053891075994221
14	0.4666666666666667	-0.18762208111454176	1.8721571453297094	-0.5642474515065684	-0.2050002726013564	1.8704186088751011	-0.5017047161118451	-0.1854912928749534	1.7221508509590662	-0.4871016182466842	-0.17878680847901876	1.5697216092136725	-0.4730884353086595							-0.17157213923625714	1.5563138660663929	-0.47485204092671085	-0.1719356543760125	1.8764514928670346	-0.6279203061875548	-0.16123996578784802	1.7206496439521912	-0.6051007509018641	-0.16091991434936434	1.5747915051310535	-0.5666021615392275	-0.19995440647870633	1.5340901754351695	-0.594976327310873	-0.1837199538187856	1.5420700531074918	-0.6116037879752474	-0.15658003737638373	1.5585578251333891	-0.5608268946885363	-0.17314416342821995	2.0411296160461734	-0.57117094129036	-0.20814521546922082	2.110984273349779	-0.5955740901408255	-0.19177239809639174	2.039277782680482	-0.4877923950147443	-0.19772956917240717	1.9468245670762312	-0.4507087930376759	-0.2093774202158172	1.8616305305918646	-0.4299713272942021	-0.150240898387786	2.045181428502615	-0.6571877450450637	-1.4802847699851633	1.87105404501212	0.7320008452761323	-0.13095832953297243	1.8827659275731903	-0.7053891075994221
15	0.5	-0.18759126344516516	1.8720009184533237	-0.564276458984614	-0.203067431423165	1.8702565156339597	-0.5038822562497978	-0.18757345874429207	1.7200972147514204	-0.48454577717755165	-0.17909706585681018	1.570705810811887	-0.4730346040018064							-0.1719203195029909	1.5574527780574714	-0.4748557339370068	-0.1720757468849595	1.874996328785611	-0.6277421703556892	-0.16362272168464484	1.7191027976797797	-0.6023509891328754	-0.16277855008723024	1.5734420366814375	-0.5646231103562802	-0.19879818712466502	1.5342181917612159	-0.6006296678392555	-0.18248434532059263	1.5421187197112578	-0.6171698290836898	-0.15829442837149982	1.5592552941222493	-0.5591706148065781	-0.17312649565185903	2.0411817146973785	-0.5712222043662292	-0.20814296742195054	2.1097881672010184	-0.5949983951131043	-0.19172058226558156	2.0380462330194535	-0.487250259828204	-0.19571879690794303	1.9451300713354716	-0.45257727272539233	-0.21024388921243628	1.85882634118732	-0.4329201387115344	-0.15101807102320386	2.045328788929432	-0.6601333046208226	-1.4802847699851633	1.87105404501212	0.7320008452761323	-0.13095832953297243	1.8827659275731903	-0.7053891075994221
16	0.5333333333333333	-0.18579045303320896	1.8707693501698066	-0.5663760872340188	-0.20603391329548776	1.868685414048072	-0.504688595895603	-0.18660250137221282	1.7204424248581351	-0.49000874094452385	-0.17908938944934846	1.5709236932407407	-0.4730730292389295							-0.17233503479825502	1.5570664297615306	-0.4742847075256551	-0.1730448874403482	1.8733971430461835	-0.6309632855633701	-0.1635500406598627	1.7192506939581738	-0.6024650390768705	-0.16098937782336015	1.5749127300388053	-0.566582637939049	-0.20114959162631707	1.532659230604367	-0.5977447381817399	-0.18491885364901928	1.5406868007156747	-0.6142931040704759	-0.1563301855482473	1.5596694569096705	-0.5613704825130238	-0.1731634927744091	2.041160667242343	-0.5711825372551946	-0.20815212607279052	2.1097175834977455	-0.5950368264845539	-0.19183230881246408	2.036850414394744	-0.4873718546101886	-0.19577852966559905	1.9467602393952412	-0.45245769201138275	-0.20755093589899376	1.8666199823676202	-0.43178109393195124	-0.15308380784892664	2.045183546900467	-0.6578985167326863	-1.4802847699851633	1.87105404501212	0.7320008452761323	-0.13095832953297243	1.8827659275731903	-0.7053891075994221
17	0.5666666666666667	-0.18544369558118398	1.8707627448757251	-0.5663080405375414	-0.20286773472055142	1.869105810938947	-0.5037232092176623	-0.1853802850638289	1.721257120707158	-0.4871215961286032	-0.1770728529447222	1.570995999471432	-0.47528785490268877							-0.16899284487372118	1.5577098736958992	-0.4737894194241922	-0.17187566298970708	1.8733027422259232	-0.627746326321183	-0.1611929398499803	1.7204885241727932	-0.6051350016540908	-0.1608589564921051	1.5747441138284373	-0.5665313076658919	-0.19809006266728355	1.532764623685858	-0.596640693737375	-0.18396392018721833	1.5407972116794737	-0.6110990045833969	-0.15552109831015912	1.56012871695499	-0.5582255910352718	-0.17308853844283564	2.0411161776838953	-0.5712997352624007	-0.20615312798159263	2.109762057233448	-0.5972167503480591	-0.1917718866065926	2.0368631894439697	-0.4874152279874569	-0.19270034466178798	1.9507111901271388	-0.4518945428613295	-0.21143593959537296	1.8703314010878154	-0.42723773758816563	-0.15095732636749778	2.0453177312255613	-0.6602118066197362	-1.4802847699851633	1.87105404501212	0.7320008452761323	-0.13095832953297243	1.8827659275731903	-0.7053891075994221
